<?xml version="1.0" standalone="no"?>
<!DOCTYPE svg PUBLIC "-//W3C//DTD SVG 20010904//EN"
 "http://www.w3.org/TR/2001/REC-SVG-20010904/DTD/svg10.dtd">
<svg version="1.0" xmlns="http://www.w3.org/2000/svg"
 width="1024.000000pt" height="1024.000000pt" viewBox="0 0 1024.000000 1024.000000"
 preserveAspectRatio="xMidYMid meet">
<metadata>
Created by potrace 1.14, written by Peter Selinger 2001-2017
</metadata>
<g transform="translate(0.000000,1024.000000) scale(0.100000,-0.100000)"
fill="#000000" stroke="none">
<path d="M4987 8434 c-1 -1 -108 -5 -237 -8 -129 -4 -260 -9 -290 -11 -30 -2
-131 -6 -225 -10 -93 -4 -197 -9 -230 -10 -536 -27 -1449 -22 -2135 10 -91 4
-185 8 -210 9 l-45 1 0 -108 c0 -60 2 -110 6 -112 5 -4 34 -7 162 -20 32 -4
68 -8 80 -11 12 -2 33 -6 47 -8 14 -3 43 -8 65 -11 48 -7 222 -51 250 -64 11
-5 47 -22 80 -37 173 -78 283 -207 342 -398 15 -50 19 -66 28 -121 11 -66 14
-86 22 -171 10 -111 11 -4548 0 -4662 -28 -314 -86 -456 -228 -565 -79 -60
-235 -117 -404 -147 -33 -5 -69 -12 -80 -14 -11 -2 -49 -7 -85 -11 -36 -4 -76
-9 -90 -11 -14 -2 -61 -7 -105 -10 -44 -4 -82 -8 -85 -11 -2 -2 -5 -58 -5
-124 l-1 -120 151 6 c82 3 200 8 260 10 670 27 2265 27 2770 0 44 -2 134 -7
201 -10 l121 -5 -1 122 c-1 116 -2 123 -21 124 -33 2 -142 15 -162 18 -10 2
-45 7 -78 11 -174 19 -343 63 -455 117 -88 43 -187 142 -227 228 -25 54 -45
113 -44 135 0 2 -4 18 -9 35 -5 17 -12 59 -15 93 -4 34 -9 80 -11 102 -8 60
-13 2196 -5 2193 3 -2 33 -17 66 -34 84 -44 285 -95 465 -118 25 -3 59 -8 75
-11 17 -2 48 -7 70 -10 22 -3 43 -9 46 -13 6 -6 128 -216 181 -312 67 -119
286 -471 424 -681 138 -209 373 -543 494 -702 95 -125 251 -326 272 -352 10
-11 61 -74 114 -140 130 -160 398 -473 481 -561 21 -22 80 -87 132 -143 l94
-102 96 7 c389 28 1090 39 1539 22 l172 -6 0 139 c0 97 -3 139 -11 139 -11 0
-167 76 -244 120 -74 41 -275 178 -295 200 -3 4 -39 33 -80 66 -128 101 -179
146 -319 279 -163 156 -376 383 -491 525 -19 24 -40 48 -45 54 -10 10 -104
128 -170 211 -194 247 -471 650 -760 1105 -54 85 -113 178 -132 207 -18 28
-33 56 -33 61 0 5 17 13 37 17 21 4 92 22 158 41 620 178 1046 531 1230 1019
27 72 60 206 71 282 3 26 8 57 11 68 2 11 6 92 8 180 5 264 -30 485 -115 710
-45 122 -106 243 -173 350 -28 44 -54 82 -57 85 -3 3 -27 32 -52 65 -67 87
-170 191 -273 276 -90 75 -190 149 -201 149 -3 0 -20 11 -37 24 -46 35 -255
138 -376 186 -96 38 -272 93 -331 103 -14 3 -59 12 -100 20 -41 9 -95 18 -120
22 -95 12 -117 15 -170 21 -47 6 -747 13 -753 8z m108 -379 c17 -3 55 -10 85
-16 300 -59 566 -216 755 -445 168 -203 266 -427 315 -718 38 -226 24 -564
-32 -761 -6 -22 -12 -45 -14 -52 -9 -48 -55 -163 -97 -245 -201 -389 -586
-633 -1097 -695 -85 -10 -378 -10 -455 0 -125 17 -250 51 -395 108 l-77 31 0
1348 0 1348 71 21 c104 30 185 49 236 56 25 3 56 8 70 10 14 2 68 7 120 11 52
3 96 7 98 9 5 5 388 -4 417 -10z"/>
</g>
</svg>
